<svg width="41" height="43" viewBox="0 0 41 43" fill="none" xmlns="http://www.w3.org/2000/svg">
<path d="M13.184 34.864C13.4187 36.6133 13.76 38.3413 14.208 40.048C14.2933 40.3253 14.336 40.6133 14.336 40.912C14.336 41.872 13.7493 42.352 12.576 42.352C11.9147 42.352 11.4027 42.1707 11.04 41.808C10.6987 41.4453 10.3787 40.7627 10.08 39.76L10.048 39.632C9.23733 40.6347 8.50133 41.3067 7.84 41.648C7.2 41.9893 6.45333 42.16 5.6 42.16C4.29867 42.16 3.22133 41.68 2.368 40.72C1.536 39.7387 1.12 38.4693 1.12 36.912C1.12 35.2053 1.48267 33.6267 2.208 32.176C2.93333 30.7253 3.92533 29.5413 5.184 28.624C6.44267 27.6853 7.85067 27.12 9.408 26.928C9.81333 22.896 10.5813 19.3867 11.712 16.4C12.864 13.4133 14.3893 11.92 16.288 11.92C17.2053 11.92 17.9627 12.336 18.56 13.168C19.1787 14 19.488 15.2587 19.488 16.944C19.488 19.2907 18.912 22.032 17.76 25.168C16.608 28.304 15.0827 31.536 13.184 34.864ZM15.936 15.056C15.3173 15.056 14.7307 16.6347 14.176 19.792C13.6427 22.9493 13.28 26.384 13.088 30.096C15.456 24.976 16.64 20.816 16.64 17.616C16.64 16.8053 16.5653 16.176 16.416 15.728C16.288 15.28 16.128 15.056 15.936 15.056ZM6.72 38.928C7.14667 38.928 7.552 38.768 7.936 38.448C8.34133 38.128 8.85333 37.5093 9.472 36.592C9.25867 35.0347 9.152 33.424 9.152 31.76C9.152 31.0987 9.16267 30.5867 9.184 30.224C8.01067 30.5653 7.04 31.344 6.272 32.56C5.504 33.776 5.12 35.12 5.12 36.592C5.12 38.1493 5.65333 38.928 6.72 38.928Z" fill="white"/>
<path d="M27.816 34.864C27.5813 36.6133 27.24 38.3413 26.792 40.048C26.7067 40.3253 26.664 40.6133 26.664 40.912C26.664 41.872 27.2507 42.352 28.424 42.352C29.0853 42.352 29.5973 42.1707 29.96 41.808C30.3013 41.4453 30.6213 40.7627 30.92 39.76L30.952 39.632C31.7627 40.6347 32.4987 41.3067 33.16 41.648C33.8 41.9893 34.5467 42.16 35.4 42.16C36.7013 42.16 37.7787 41.68 38.632 40.72C39.464 39.7387 39.88 38.4693 39.88 36.912C39.88 35.2053 39.5173 33.6267 38.792 32.176C38.0667 30.7253 37.0747 29.5413 35.816 28.624C34.5573 27.6853 33.1493 27.12 31.592 26.928C31.1867 22.896 30.4187 19.3867 29.288 16.4C28.136 13.4133 26.6107 11.92 24.712 11.92C23.7947 11.92 23.0373 12.336 22.44 13.168C21.8213 14 21.512 15.2587 21.512 16.944C21.512 19.2907 22.088 22.032 23.24 25.168C24.392 28.304 25.9173 31.536 27.816 34.864ZM25.064 15.056C25.6827 15.056 26.2693 16.6347 26.824 19.792C27.3573 22.9493 27.72 26.384 27.912 30.096C25.544 24.976 24.36 20.816 24.36 17.616C24.36 16.8053 24.4347 16.176 24.584 15.728C24.712 15.28 24.872 15.056 25.064 15.056ZM34.28 38.928C33.8533 38.928 33.448 38.768 33.064 38.448C32.6587 38.128 32.1467 37.5093 31.528 36.592C31.7413 35.0347 31.848 33.424 31.848 31.76C31.848 31.0987 31.8373 30.5867 31.816 30.224C32.9893 30.5653 33.96 31.344 34.728 32.56C35.496 33.776 35.88 35.12 35.88 36.592C35.88 38.1493 35.3467 38.928 34.28 38.928Z" fill="white"/>
<path d="M28.74 17.8664C29.1133 17.9198 29.3667 18.0331 29.5 18.2064C29.6467 18.3798 29.72 18.6064 29.72 18.8864C29.72 19.8064 29.2267 20.2331 28.24 20.1664L27.54 20.1064C26.7533 20.0398 25.9667 19.9864 25.18 19.9464C24.4067 19.9064 23.5933 19.8864 22.74 19.8864H21.84C21.68 21.8598 21.5133 23.6598 21.34 25.2864L24.78 25.2264C25.2733 25.2264 25.6 25.3131 25.76 25.4864C25.9333 25.6598 26.02 25.8931 26.02 26.1864C26.02 26.6398 25.8867 26.9998 25.62 27.2664C25.3533 27.5198 24.9733 27.6464 24.48 27.6464H21.06L20.94 28.5064C20.66 30.7064 20.06 32.2731 19.14 33.2064C18.2333 34.1398 16.98 34.6064 15.38 34.6064C14.4733 34.6064 13.64 34.4131 12.88 34.0264C12.12 33.6264 11.56 33.1464 11.2 32.5864C11.0533 32.3598 10.98 32.0864 10.98 31.7664C10.98 31.4464 11.0533 31.1664 11.2 30.9264C11.36 30.6864 11.5533 30.5664 11.78 30.5664C11.94 30.5664 12.0933 30.6198 12.24 30.7264C12.4 30.8331 12.6 31.0398 12.84 31.3464C13.48 32.1864 14.2733 32.6064 15.22 32.6064C15.98 32.6064 16.6133 32.2998 17.12 31.6864C17.64 31.0598 17.9733 30.0798 18.12 28.7464L18.24 27.6464H17.28C16.9733 27.6464 16.7067 27.5598 16.48 27.3864C16.2667 27.2131 16.16 26.9664 16.16 26.6464C16.16 26.2331 16.2667 25.9198 16.48 25.7064C16.6933 25.4798 17.0067 25.3664 17.42 25.3664C17.7933 25.3664 18.16 25.3598 18.52 25.3464C18.68 23.8798 18.8533 22.0998 19.04 20.0064C17.6 20.1398 16.5867 20.3731 16 20.7064C15.4133 21.0398 15.12 21.5331 15.12 22.1864C15.12 22.6398 15.2533 23.0731 15.52 23.4864C15.6 23.6064 15.64 23.7264 15.64 23.8464C15.64 24.0864 15.5067 24.2998 15.24 24.4864C14.9733 24.6598 14.6733 24.7464 14.34 24.7464C13.98 24.7464 13.6733 24.6398 13.42 24.4264C13.26 24.2931 13.1067 24.0198 12.96 23.6064C12.8133 23.1931 12.74 22.7331 12.74 22.2264C12.74 20.5731 13.5867 19.3731 15.28 18.6264C16.9867 17.8798 19.4733 17.5064 22.74 17.5064C25.0067 17.5064 27.0067 17.6264 28.74 17.8664Z" fill="#00F0FF"/>
</svg>
